<?xml version="1.0" encoding="UTF-8"?> <svg xmlns="http://www.w3.org/2000/svg" id="Warstwa_1" data-name="Warstwa 1" viewBox="0 0 671.66 715.5"><defs><style>.cls-1,.cls-2{fill:#1c1c1f;}.cls-2{fill-rule:evenodd;}</style></defs><rect class="cls-1" x="118.58" y="61.92" width="56.8" height="118.73"></rect><polygon class="cls-2" points="118.58 190.87 552.01 190.87 552.01 252.79 490.09 252.79 490.09 314.7 428.17 314.7 428.17 376.62 366.25 376.62 366.25 438.54 304.33 438.54 304.33 376.62 242.42 376.62 242.42 314.7 180.5 314.7 180.5 252.79 118.58 252.79 118.58 190.87"></polygon><rect class="cls-1" x="181.35" width="56.81" height="180.64"></rect><rect class="cls-1" x="244.12" width="56.81" height="180.64"></rect><rect class="cls-1" x="306.89" y="61.92" width="56.81" height="118.73"></rect><rect class="cls-1" x="369.66" width="56.81" height="180.64"></rect><rect class="cls-1" x="432.43" width="56.81" height="180.64"></rect><rect class="cls-1" x="495.2" y="61.92" width="56.81" height="118.73"></rect><path class="cls-1" d="M0,518v83.29c0,2.37,1.12,3.5,3.5,3.5h10c2.25,0,3.37-1.13,3.37-3.5v-29c0-1.13.51-1.63,1.63-1.63a1.59,1.59,0,0,1,1.38.74l25,32.27a2.83,2.83,0,0,0,2.5,1.13H59.66a3.16,3.16,0,0,0,3.25-3.26,3.32,3.32,0,0,0-.75-2L30.39,559.6l31.77-39.9a3.3,3.3,0,0,0,.75-2,3.15,3.15,0,0,0-3.25-3.25H47.4a2.8,2.8,0,0,0-2.5,1.13l-25,32.26a1.56,1.56,0,0,1-1.38.75c-1.12,0-1.63-.49-1.63-1.62V518c0-2.38-1.12-3.51-3.37-3.51H3.5c-2.38,0-3.5,1.13-3.5,3.51"></path><path class="cls-1" d="M129.11,558.73H104.34a1.66,1.66,0,0,1-1.88-1.88V535c0-3.38,1.88-5.25,5.25-5.25h18c3.38,0,5.25,1.87,5.25,5.25v21.89a1.66,1.66,0,0,1-1.87,1.88m-24.77,15.38h24.77A1.66,1.66,0,0,1,131,576v25.26c0,2.38,1.13,3.5,3.38,3.5h10c2.38,0,3.51-1.12,3.51-3.5V533.46c0-11.63-7.39-19-19-19H104.59c-11.63,0-19,7.38-19,19v67.79c0,2.38,1.13,3.5,3.51,3.5h10c2.25,0,3.37-1.12,3.37-3.5V576A1.66,1.66,0,0,1,104.34,574.11Z"></path><path class="cls-1" d="M205.57,605.83c2.25,0,3.37-1.13,3.37-3.5V532.66a1.66,1.66,0,0,1,1.88-1.87H228c2.38,0,3.5-1.13,3.5-3.51v-8.37c0-2.26-1.12-3.38-3.5-3.38H173c-2.37,0-3.5,1.12-3.5,3.38v8.37c0,2.38,1.13,3.51,3.5,3.51h17.14a1.66,1.66,0,0,1,1.88,1.87v69.67c0,2.37,1.12,3.5,3.37,3.5Z"></path><path class="cls-1" d="M292,590.58H281c-7.13,0-10.63-3.5-10.63-10.51V541.29c0-7,3.5-10.5,10.63-10.5h11c7.13,0,10.63,3.5,10.63,10.5v38.78c0,7-3.5,10.51-10.63,10.51m-13.63,15.25h16.26c15.89,0,24.89-9,24.89-24.89V540.42c0-15.89-9-24.89-24.89-24.89H278.36c-15.88,0-24.89,9-24.89,24.89v40.52C253.47,596.83,262.48,605.83,278.36,605.83Z"></path><path class="cls-1" d="M395.23,539.67,407,604.21a1.78,1.78,0,0,0,1.88,1.62h17.39a1.78,1.78,0,0,0,1.87-1.62L447,518.79a2.57,2.57,0,0,0-2.25-3.26h-12a3.21,3.21,0,0,0-3.39,2.5l-12.12,70.05L405.11,518a3.19,3.19,0,0,0-3.38-2.5h-13a3.19,3.19,0,0,0-3.38,2.5l-12.14,70.05L361.09,518a3.2,3.2,0,0,0-3.38-2.5h-12a2.58,2.58,0,0,0-2.25,3.26l18.89,85.42a1.77,1.77,0,0,0,1.87,1.62H381.6a1.79,1.79,0,0,0,1.88-1.62Z"></path><path class="cls-1" d="M476.17,515.53c-2.39,0-3.5,1.12-3.5,3.5v83.3c0,2.37,1.11,3.5,3.5,3.5h10c2.25,0,3.37-1.13,3.37-3.5V519c0-2.38-1.12-3.5-3.37-3.5Z"></path><path class="cls-1" d="M548.38,605.83h18.38c11.64,0,19-7.38,19-19v-4.51c0-2.37-1.13-3.5-3.5-3.5h-10c-2.25,0-3.37,1.13-3.37,3.5v3c0,3.38-1.87,5.26-5.25,5.26H551c-7.13,0-10.64-3.5-10.64-10.51V541.29c0-7,3.51-10.5,10.64-10.5h12.63c3.38,0,5.25,1.87,5.25,5.25v3c0,2.37,1.12,3.5,3.37,3.5h10c2.37,0,3.5-1.13,3.5-3.5v-4.51c0-11.63-7.38-19-19-19H548.38c-15.88,0-24.89,9-24.89,24.89v40.52c0,15.89,9,24.89,24.89,24.89"></path><path class="cls-1" d="M668.17,590.58h-34a1.66,1.66,0,0,1-1.88-1.88V570.07a1.67,1.67,0,0,1,1.88-1.89h25.64c2.63,0,3.88-1.11,3.88-3.25v-8.37c0-2.26-1.25-3.38-3.88-3.38H634.14a1.66,1.66,0,0,1-1.88-1.87V532.66a1.66,1.66,0,0,1,1.88-1.87h34c2.37,0,3.49-1.13,3.49-3.51v-8.37c0-2.26-1.12-3.38-3.49-3.38H618.88c-2.37,0-3.5,1.12-3.5,3.5v83.3c0,2.37,1.13,3.5,3.5,3.5h49.29c2.37,0,3.49-1.13,3.49-3.5V594c0-2.25-1.12-3.37-3.49-3.37"></path><path class="cls-1" d="M169.92,699.67h-5.48l.38-4.49a21.46,21.46,0,0,1-14,5.25c-5.71,0-7.76-3.12-7.76-7.38a19.89,19.89,0,0,1,.23-2.89l2.58-14.61c1.6-9.13,4.87-13.7,16.59-13.7a33.23,33.23,0,0,1,7.69,1l2.74-15.37,6.39-.92Zm-.68-31.5a34.69,34.69,0,0,0-7.46-.92c-6.62,0-8.53,1.83-9.82,9.13l-2.36,13.47a14.8,14.8,0,0,0-.23,2.36c0,1.83.69,2.82,3,2.82,4.42,0,9.06-2.74,13.24-6.16Z"></path><path class="cls-1" d="M191.29,647.47l6.4-.92-9.36,53.12h-6.25Z"></path><path class="cls-1" d="M227.36,699.67h-5.18l.23-4.49a20.8,20.8,0,0,1-13.85,5.25c-5.71,0-7.84-3.12-7.84-7.38a18.72,18.72,0,0,1,.31-2.89l2.58-14.69c1.6-9,4.95-13.62,16.67-13.62a40.71,40.71,0,0,1,13.32,2.51Zm-.69-31.5a28.27,28.27,0,0,0-7.15-.92c-5.71,0-8.52,1.75-9.82,9.06l-2.36,13.39a18.42,18.42,0,0,0-.3,2.59c0,1.75.76,2.74,3,2.74,4.65,0,8.75-2.58,13-6.47Z"></path><path class="cls-1" d="M256.33,686.35l1.91-10.8c1.6-9.06,6.77-13.7,17.42-13.7,8.53,0,12.94,4.72,12.94,11a12.8,12.8,0,0,1-.23,2.58l-2.05,11.64c-1.45,8.38-5.86,13.32-17.35,13.32C258.39,700.43,254.89,694.34,256.33,686.35Zm25.8-10.88a11.92,11.92,0,0,0,.23-2.2c0-4-2.36-6-7.61-6-6.09,0-9.29,2.9-10.27,8.68l-1.9,10.73c-.84,5.1.38,8.37,7.3,8.37,6.39,0,9.29-2.74,10.27-8.29Z"></path><path class="cls-1" d="M321.54,699.67h-5.48l.38-4.49a21.48,21.48,0,0,1-14,5.25c-5.71,0-7.76-3.12-7.76-7.38a21.25,21.25,0,0,1,.22-2.89l2.59-14.61c1.6-9.13,4.87-13.7,16.59-13.7a33.23,33.23,0,0,1,7.69,1l2.74-15.37,6.39-.92Zm-.68-31.5a34.69,34.69,0,0,0-7.46-.92c-6.62,0-8.53,1.83-9.82,9.13l-2.36,13.47a14.8,14.8,0,0,0-.23,2.36c0,1.83.69,2.82,3,2.82,4.42,0,9.06-2.74,13.24-6.16Z"></path><path class="cls-1" d="M383.25,671.13a10.47,10.47,0,0,0,.15-1.29c0-1.52-.76-2.05-2.59-2.05-3.73,0-9.89,2.89-13.93,5.55l-4.64,26.33H356l5-28.54a10.47,10.47,0,0,0,.15-1.29c0-1.52-.76-2.05-2.59-2.05-3.73,0-9.44,2.73-14,5.55L340,699.67H333.7l6.47-36.6,5.48-.92-.45,5.26c3.65-2.59,11.26-5.56,15.67-5.56,4.19,0,6.24,2.14,6.54,5.56,4-2.82,11.27-5.56,15.68-5.56,4.65,0,6.62,2.51,6.62,6.55a17.58,17.58,0,0,1-.3,3.19l-5,28.08h-6.23Z"></path><path class="cls-1" d="M402.71,663.07l6.39-.92-6.62,37.52h-6.24Zm2.74-15.6,6.39-.92-1.67,9.52-6.4.83Z"></path><path class="cls-1" d="M441.51,699.67h-5.17l.22-4.49a20.78,20.78,0,0,1-13.84,5.25c-5.71,0-7.84-3.12-7.84-7.38a20,20,0,0,1,.3-2.89l2.59-14.69c1.6-9,5-13.62,16.67-13.62a40.6,40.6,0,0,1,13.31,2.51Zm-.68-31.5a28.33,28.33,0,0,0-7.15-.92c-5.71,0-8.53,1.75-9.82,9.06L421.5,689.7a18.42,18.42,0,0,0-.3,2.59c0,1.75.76,2.74,3,2.74,4.64,0,8.75-2.58,13-6.47Z"></path><path class="cls-1" d="M487.47,668.4a17.7,17.7,0,0,1-.31,3.19l-4.94,28.08H476l5-28.54a10.47,10.47,0,0,0,.15-1.29c0-1.52-.76-2.05-2.59-2.05-3.73,0-9.44,2.73-14,5.55l-4.64,26.33h-6.24l6.46-36.6,5.48-.92-.45,5.26c3.65-2.59,11.26-5.56,15.68-5.56C485.49,661.85,487.47,664.36,487.47,668.4Z"></path><path class="cls-1" d="M492.25,715.5l-1.67-4.79c5.93-2.13,9.43-5,12.86-11h-2.21l-5.78-36.52,6-.84,4.71,32.42,10.51-21.92a11.11,11.11,0,0,0,1.37-5.63,16.77,16.77,0,0,0-.61-4.11l6-.92a21.55,21.55,0,0,1,.61,4.88,13.32,13.32,0,0,1-1.29,6.46L509.9,699.67C505.8,707.2,502.22,712.23,492.25,715.5Z"></path></svg> 